<?xml version="1.0" standalone="no"?><!DOCTYPE svg PUBLIC "-//W3C//DTD SVG 1.1//EN" "http://www.w3.org/Graphics/SVG/1.1/DTD/svg11.dtd"><svg width="200" height="200" viewBox="0 0 200 200" version="1.1" xmlns="http://www.w3.org/2000/svg" xmlns:xlink="http://www.w3.org/1999/xlink"><defs><style type="text/css"><![CDATA[
@font-face { font-family: ifont; src: url("//at.alicdn.com/t/font_1442373896_4754455.eot?#iefix") format("embedded-opentype"), url("//at.alicdn.com/t/font_1442373896_4754455.woff") format("woff"), url("//at.alicdn.com/t/font_1442373896_4754455.ttf") format("truetype"), url("//at.alicdn.com/t/font_1442373896_4754455.svg#ifont") format("svg"); }
]]></style></defs><g class="transform-group"><g transform="scale(0.1953125, 0.1953125)"><path d="M512 66.742303c-233.478465 0-422.749091 189.686949-422.749091 423.678707C89.250909 724.412768 278.521535 914.10101 512 914.10101c233.477172 0 422.749091-189.688242 422.749091-423.678707C934.749091 256.429253 745.477172 66.742303 512 66.742303zM520.021333 730.444283c-6.186667 6.181495-14.87903 9.78101-23.625697 9.78101s-17.43903-3.599515-23.621818-9.78101c-6.186667-6.186667-9.787475-14.87903-9.787475-23.625697 0-8.742788 3.600808-17.43903 9.787475-23.621818 6.182788-6.186667 14.873859-9.787475 23.621818-9.787475s17.43903 3.600808 23.625697 9.787475c6.181495 6.181495 9.782303 14.87903 9.782303 23.621818C529.804929 715.565253 526.202828 724.257616 520.021333 730.444283zM577.485576 495.504808c-37.752242 19.030626-59.161859 31.237172-59.267879 60.303515l0 55.125333c0 12.313859-9.929697 22.344404-22.237091 22.344404-12.308687 0-22.238384-10.030545-22.238384-22.344404l0-55.125333c0-57.823677 46.338586-81.197253 83.576242-100.024889 42.817939-21.616485 68.989414-36.924768 68.989414-78.298505 0-54.509899-51.303434-92.576323-124.741818-92.576323-62.267475 0-103.742061 37.237657-117.192404 74.167596-3.929212 10.651152-5.378586 24.822949-3.621495 32.888242 2.691879 11.999677-4.857535 23.893333-16.858505 26.586505-11.893657 2.686707-23.893333-4.864-26.58004-16.863677-4.450263-19.859394 0.100848-43.545859 5.272566-57.818505 22.650828-61.954586 86.575838-103.535192 159.085899-103.535192 99.706828 0 169.318141 56.367838 169.318141 137.151354C670.991515 448.338747 619.173495 474.505051 577.485576 495.504808z" fill=""></path></g></g></svg>